<?xml version="1.0" encoding="UTF-8" standalone="no"?>
<svg
   xmlns:dc="http://purl.org/dc/elements/1.1/"
   xmlns:cc="http://creativecommons.org/ns#"
   xmlns:rdf="http://www.w3.org/1999/02/22-rdf-syntax-ns#"
   xmlns:svg="http://www.w3.org/2000/svg"
   xmlns="http://www.w3.org/2000/svg"
   width="210mm"
   height="210mm"
   viewBox="0 0 210 210"
   version="1.1"
   id="svg69">
  <defs
     id="defs63" />
  <metadata
     id="metadata66">
    <rdf:RDF>
      <cc:Work
         rdf:about="">
        <dc:format>image/svg+xml</dc:format>
        <dc:type
           rdf:resource="http://purl.org/dc/dcmitype/StillImage" />
        <dc:title></dc:title>
      </cc:Work>
    </rdf:RDF>
  </metadata>
  <g
     id="layer1">
    <path
       d="m 104.78236,23.151368 c 22.61653,0 43.09327,9.23489 57.91646,24.165008 14.82171,14.929389 23.98956,35.551965 23.98956,58.328014 0,22.77598 -9.16785,43.39855 -23.98956,58.32792 -14.82319,14.93014 -35.29993,24.16501 -57.91646,24.16501 -22.616453,0 -43.093195,-9.23487 -57.916378,-24.16501 -14.821725,-14.92937 -23.989569,-35.55194 -23.989569,-58.32792 0,-22.776049 9.167844,-43.398625 23.989569,-58.328014 C 61.689165,32.386258 82.165907,23.151368 104.78236,23.151368 Z m 56.66832,25.406036 c -14.50163,-14.60602 -34.53717,-23.641139 -56.66832,-23.641139 -22.131103,0 -42.166677,9.035119 -56.668267,23.641139 -14.502267,14.607895 -23.472809,34.791286 -23.472809,57.086986 0,22.2956 8.970542,42.479 23.472809,57.0869 14.50159,14.6061 34.537164,23.64114 56.668267,23.64114 22.13115,0 42.16669,-9.03504 56.66832,-23.64114 14.5023,-14.6079 23.47281,-34.7913 23.47281,-57.0869 0,-22.2957 -8.97051,-42.479091 -23.47281,-57.086986"
       style="fill:#a7a5a6;fill-opacity:1;fill-rule:nonzero;stroke:none;stroke-width:0.22565"
       id="path20" />
    <path
       d="m 32.205894,132.56113 37.922178,-0.42077 0.997526,-24.32878 17.260071,24.84131 15.699951,0.10214 L 85.280867,95.479473 105.95111,27.78144 c -0.46418,-0.0081 2.04017,-0.01765 -1.16875,-0.01765 -3.20885,0 -11.746982,0.679097 -17.313349,1.961824 L 70.267457,82.546383 70.061685,36.043758 c -25.265184,12.81159 -42.599784,39.165688 -42.599784,69.600932 0,9.46112 1.676284,18.52765 4.743993,26.91643"
       style="fill:#a7a5a6;fill-opacity:1;fill-rule:evenodd;stroke:none;stroke-width:0.22565"
       id="path22" />
    <path
       d="m 177.12104,133.19083 -71.32282,0.0174 L 87.263241,95.645379 107.27298,27.808308 c 41.55001,1.325058 74.8299,35.663498 74.8299,77.836512 0,9.69907 -1.76559,18.98159 -4.98184,27.54613 z M 119.01505,50.422535 c 31.68476,5.275913 45.58168,24.360532 39.411,59.023335 H 120.13576 L 108.7643,87.448181 Z"
       style="fill:#a7a5a6;fill-opacity:1;fill-rule:evenodd;stroke:none;stroke-width:0.22565"
       id="path24" />
    <path
       d="m 32.879679,134.33661 38.926031,-0.37347 0.373491,-21.85408 15.503001,22.22755 v 47.27348 C 62.625588,175.91171 42.180255,157.96224 32.879679,134.33661 Z m 21.554787,12.55772 h 15.59651 v 13.26165 c -7.079233,-2.91629 -12.253131,-7.35633 -15.59651,-13.26165"
       style="fill:#a7a5a6;fill-opacity:1;fill-rule:evenodd;stroke:none;stroke-width:0.22565"
       id="path26" />
    <path
       d="m 89.130083,134.09906 h 15.596557 l 11.68027,48.54986 c -3.79171,0.57567 -7.67332,0.87613 -11.62455,0.87613 -5.362711,0 -10.597297,-0.55107 -15.652277,-1.59765 z m 5.136151,12.79527 h 5.323567 l 2.895059,20.45275 c -3.871018,0.36327 -6.713891,-0.0835 -8.218626,-1.588 z"
       style="fill:#a7a5a6;fill-opacity:1;fill-rule:evenodd;stroke:none;stroke-width:0.22565"
       id="path28" />
    <path
       d="m 105.84518,134.19507 h 5.32214 l 4.00031,16.09489 1.19726,-15.96218 7.51305,0.0559 -3.90563,23.33377 14.27215,19.94866 c -2.30454,0.95765 -4.66491,1.80511 -7.07502,2.53896 l -5.96141,-11.26835 2.5439,12.22353 c -1.9844,0.50472 -4.00092,0.92899 -6.04328,1.27561 z"
       style="fill:#a7a5a6;fill-opacity:1;fill-rule:evenodd;stroke:none;stroke-width:0.22565"
       id="path30" />
    <path
       d="m 125.40807,134.33801 32.17333,28.19563 c -2.02783,1.91028 -4.15628,3.71362 -6.37935,5.39763 l -8.51017,-6.24375 -2.32827,6.65358 3.78389,4.34267 c -2.84848,1.70099 -5.81415,3.223 -8.88256,4.5509 l -14.15292,-19.82874 z m 7.86786,20.03342 4.3659,3.40868 -2.17463,5.1047 -3.47541,-3.23678 z"
       style="fill:#a7a5a6;fill-opacity:1;fill-rule:evenodd;stroke:none;stroke-width:0.22565"
       id="path32" />
    <path
       d="m 127.4388,134.29248 49.20602,0.1433 c -1.85489,4.6928 -4.14889,9.16182 -6.83288,13.35341 -3.59717,-7.72168 -13.84825,-8.98607 -24.9094,-7.89325 l 19.99668,14.72188 c -1.93496,2.40548 -4.00765,4.69314 -6.20881,6.84982 z"
       style="fill:#a7a5a6;fill-opacity:1;fill-rule:evenodd;stroke:none;stroke-width:0.22565"
       id="path34" />
    <path
       d="m 104.78236,1.9323326 c 28.43389,0 54.17841,11.6107514 72.81441,30.3818974 18.63498,18.769814 30.16135,44.696519 30.16135,73.33016 0,28.63325 -11.52637,54.56027 -30.16135,73.33007 -18.636,18.77117 -44.38052,30.3819 -72.81441,30.3819 -28.433811,0 -54.178337,-11.61073 -72.814347,-30.3819 -18.634969,-18.7698 -30.16135,-44.69682 -30.16135,-73.33007 0,-28.633641 11.526381,-54.560346 30.16135,-73.33016 C 50.604023,13.543084 76.348549,1.9323326 104.78236,1.9323326 Z M 175.72533,34.17584 C 157.57151,15.890356 132.4888,4.5796469 104.78236,4.5796469 77.076001,4.5796469 51.9933,15.890356 33.839461,34.17584 15.683836,52.462766 4.4539837,77.731151 4.4539837,105.64439 c 0,27.91353 11.2298523,53.18161 29.3854773,71.46849 18.153839,18.28545 43.23654,29.59623 70.942899,29.59623 27.70644,0 52.78915,-11.31078 70.94297,-29.59623 18.15557,-18.28688 29.38546,-43.55496 29.38546,-71.46849 0,-27.913239 -11.22989,-53.181624 -29.38546,-71.46855"
       style="fill:#a7a5a6;fill-opacity:1;fill-rule:nonzero;stroke:none;stroke-width:0.22565"
       id="path36" />
    <path
       d="M 20.208292,99.275971 7.4298916,97.691139 7.7507458,95.10311 l 5.6603282,0.702058 -5.0136627,-5.916561 0.4302911,-3.46791 4.3782986,5.438622 8.431124,-4.103724 -0.41366,3.33737 -6.435842,2.771544 1.877858,2.344142 3.864042,0.479334 z M 22.157404,86.40022 9.8605229,82.962542 l 0.7020651,-2.511699 10.201298,2.852009 1.738019,-6.218058 2.095968,0.585977 z M 13.4171,70.572465 l 1.075779,-2.375523 6.356072,2.878862 c 1.010191,0.457478 1.676622,0.722857 1.999958,0.800195 0.526306,0.116862 1.021832,0.05471 1.481768,-0.190946 0.463802,-0.247079 0.84253,-0.697527 1.139397,-1.352944 0.300361,-0.663254 0.391458,-1.227668 0.268973,-1.691135 -0.122502,-0.463407 -0.366767,-0.817461 -0.737378,-1.067365 -0.370292,-0.250282 -1.017968,-0.586285 -1.945979,-1.006737 l -6.492929,-2.940593 1.075855,-2.375545 6.167905,2.79349 c 1.408729,0.638161 2.37726,1.152061 2.900361,1.544207 0.523459,0.391848 0.908917,0.84892 1.154217,1.374845 0.246771,0.522752 0.355831,1.125308 0.333577,1.806186 -0.02328,0.683722 -0.242122,1.486017 -0.661127,2.411487 -0.505775,1.116814 -1.017612,1.905364 -1.537892,2.363907 -0.520279,0.458494 -1.062807,0.762391 -1.629665,0.910343 -0.566898,0.147893 -1.097424,0.170827 -1.601843,0.0709 -0.741908,-0.148583 -1.770512,-0.522082 -3.083539,-1.116801 z m 6.335853,-13.39186 2.765198,-4.344022 c 0.548868,-0.862366 0.991188,-1.479681 1.330701,-1.857058 0.3438,-0.378031 0.732775,-0.659657 1.17015,-0.850272 0.440129,-0.18889 0.918078,-0.275695 1.436234,-0.258413 0.518496,0.01765 1.014093,0.176483 1.481795,0.474019 0.50613,0.321937 0.887028,0.756141 1.135156,1.298287 0.250923,0.54324 0.330756,1.116417 0.2453,1.719332 0.614557,-0.536189 1.265464,-0.832669 1.957601,-0.893058 0.690757,-0.05779 1.349454,0.112647 1.978786,0.513631 0.495909,0.315237 0.903614,0.734893 1.225166,1.262569 0.321213,0.527704 0.496293,1.079717 0.522378,1.657548 0.02578,0.57428 -0.114668,1.174011 -0.420746,1.800219 -0.19374,0.388247 -0.730267,1.286556 -1.609895,2.691387 l -2.354701,3.699913 z m 3.205711,-1.050785 2.503288,1.593328 0.914237,-1.436297 c 0.542464,-0.852073 0.867605,-1.391404 0.974154,-1.614842 0.195231,-0.401297 0.254896,-0.77939 0.176545,-1.131246 -0.07841,-0.351608 -0.291218,-0.636452 -0.639962,-0.858467 -0.336755,-0.214269 -0.666429,-0.29263 -0.993988,-0.241788 -0.32755,0.05122 -0.629018,0.246014 -0.903927,0.582775 -0.163817,0.201548 -0.573959,0.818157 -1.228748,1.847071 z m 4.308801,2.742248 2.913091,1.854164 1.2936,-2.033156 c 0.502293,-0.788837 0.800179,-1.306706 0.891973,-1.546366 0.146848,-0.364994 0.171921,-0.722142 0.0724,-1.073373 -0.102739,-0.35296 -0.342398,-0.651219 -0.729256,-0.897612 -0.328658,-0.208977 -0.654406,-0.306385 -0.983447,-0.291913 -0.327169,0.01233 -0.640598,0.136223 -0.934323,0.368474 -0.293638,0.232649 -0.759941,0.848571 -1.395616,1.847153 z m 10.219644,-11.830281 1.562575,-2.013063 c 0.720427,0.473023 1.381223,0.678455 1.990476,0.615591 0.608871,-0.06242 1.183533,-0.380851 1.725997,-0.952668 0.573618,-0.604654 0.878539,-1.182834 0.912836,-1.732717 0.03422,-0.549953 -0.118985,-0.989069 -0.462783,-1.314836 -0.221635,-0.210378 -0.470522,-0.323018 -0.748635,-0.343484 -0.276063,-0.01797 -0.625502,0.08053 -1.044151,0.294743 -0.28655,0.145455 -0.895803,0.51746 -1.834323,1.114681 -1.207588,0.767391 -2.186751,1.180713 -2.939968,1.239001 -1.057842,0.08255 -1.956519,-0.228746 -2.698114,-0.93223 -0.475825,-0.451841 -0.796359,-1.01163 -0.957292,-1.673079 -0.159513,-0.663636 -0.10802,-1.349831 0.155694,-2.062839 0.262948,-0.71301 0.732051,-1.424913 1.412951,-2.14252 1.107984,-1.16767 2.202516,-1.802624 3.2809,-1.898639 1.080793,-0.09817 2.065258,0.249208 2.961759,1.041987 l -1.729898,1.953308 c -0.558773,-0.377647 -1.06775,-0.533636 -1.528026,-0.470843 -0.460667,0.0632 -0.942812,0.357569 -1.441926,0.883468 -0.516059,0.543631 -0.806895,1.077275 -0.871818,1.598322 -0.04203,0.336014 0.05649,0.619815 0.300047,0.850992 0.221633,0.210368 0.499812,0.296522 0.833325,0.258003 0.427467,-0.04514 1.182809,-0.423183 2.268584,-1.132329 1.083998,-0.711224 1.951916,-1.172909 2.596803,-1.391086 0.649486,-0.218432 1.29085,-0.26295 1.928306,-0.129137 0.637462,0.133741 1.250616,0.48036 1.839721,1.039479 0.535128,0.507596 0.897296,1.132015 1.081876,1.873609 0.184605,0.741212 0.134464,1.490935 -0.15529,2.249162 -0.28732,0.760257 -0.81784,1.545674 -1.587713,2.356796 -1.119991,1.180328 -2.252345,1.829502 -3.39844,1.944175 -1.143996,0.117175 -2.294701,-0.259749 -3.453473,-1.123847 z m 11.97501,-6.111399 -7.965583,-10.117001 3.275597,-2.579149 c 1.241074,-0.977038 2.087823,-1.563706 2.544602,-1.759256 0.699562,-0.303181 1.444361,-0.35544 2.236097,-0.154588 0.790968,0.200847 1.504047,0.704158 2.138298,1.509658 0.489596,0.621919 0.786049,1.231172 0.896194,1.831214 0.107331,0.601834 0.08405,1.15851 -0.07091,1.673104 -0.157415,0.513238 -0.38437,0.951267 -0.681214,1.310999 -0.411611,0.48036 -1.076579,1.084311 -1.999638,1.811067 l -1.328268,1.045862 3.003847,3.814985 z m -4.570707,-10.020289 2.269628,2.882381 1.113983,-0.877121 c 0.803065,-0.632158 1.294752,-1.107286 1.482178,-1.426396 0.187401,-0.319433 0.269653,-0.650823 0.242871,-0.999943 -0.02476,-0.346625 -0.153193,-0.669258 -0.390447,-0.970698 -0.291149,-0.369525 -0.638473,-0.588025 -1.041955,-0.659664 -0.40592,-0.0699 -0.79526,-0.007 -1.175407,0.193043 -0.278187,0.146469 -0.783933,0.506534 -1.518869,1.085078 z m 10.499624,-2.409388 c -0.660405,-1.134836 -1.044123,-2.187742 -1.153521,-3.15736 -0.07911,-0.713323 -0.02898,-1.426012 0.14681,-2.131282 0.175447,-0.705583 0.460283,-1.318354 0.853135,-1.841776 0.523803,-0.6968 1.238591,-1.310275 2.14541,-1.837598 1.642727,-0.955872 3.250504,-1.207902 4.830092,-0.763847 1.57849,0.447937 2.894744,1.578872 3.951553,3.394921 1.047576,1.800909 1.377636,3.494795 0.991864,5.078964 -0.384415,1.586252 -1.397472,2.855214 -3.032048,3.806097 -1.65584,0.962914 -3.268555,1.225166 -4.834386,0.780433 -1.564742,-0.442635 -2.865046,-1.551317 -3.898909,-3.328552 z m 2.272065,-1.422788 c 0.734175,1.262187 1.583095,2.047583 2.546008,2.361327 0.961177,0.311374 1.892294,0.206858 2.788482,-0.314824 0.899394,-0.5231 1.44655,-1.274923 1.649118,-2.256182 0.198364,-0.982359 -0.07765,-2.118623 -0.829851,-3.411188 -0.743015,-1.277737 -1.577811,-2.068078 -2.504688,-2.368119 -0.925881,-0.303911 -1.852086,-0.184925 -2.78178,0.356138 -0.9276,0.53973 -1.491005,1.294053 -1.68935,2.258683 -0.19663,0.96752 0.07625,2.092135 0.822061,3.374165 z m 13.680612,-0.07416 -4.1902,-12.175861 5.178498,-1.781823 c 1.300758,-0.447553 2.285536,-0.663253 2.950188,-0.647702 0.667474,0.01445 1.271399,0.240701 1.817789,0.677373 0.547471,0.439047 0.945311,1.015495 1.193056,1.7352 0.315205,0.915638 0.308164,1.760996 -0.02258,2.540701 -0.331068,0.779396 -1.00172,1.428812 -2.013696,1.95128 0.636445,0.126321 1.189851,0.316229 1.660757,0.569654 0.473708,0.25203 1.165527,0.752928 2.075481,1.498425 l 2.302121,1.86402 -2.939263,1.011273 -2.677647,-2.051514 c -0.956576,-0.726364 -1.595117,-1.172586 -1.91525,-1.338123 -0.316242,-0.163728 -0.621235,-0.249209 -0.913471,-0.249524 -0.294424,-4.53e-4 -0.723954,0.09672 -1.29085,0.29156 l -0.49873,0.171928 1.749661,5.084604 z m 0.04906,-7.871666 1.819573,-0.626223 c 1.178902,-0.405588 1.895498,-0.709492 2.156348,-0.909935 0.257308,-0.199835 0.430271,-0.452874 0.510737,-0.752921 0.08328,-0.301084 0.06039,-0.635678 -0.06569,-1.001409 -0.141488,-0.410845 -0.36497,-0.701681 -0.670973,-0.881367 -0.304985,-0.177564 -0.668554,-0.229758 -1.0879,-0.158496 -0.211073,0.04099 -0.81356,0.232642 -1.808629,0.575019 l -1.91872,0.660435 z m 15.12247,3.216585 -2.422101,-10.422927 -3.713293,0.862991 -0.49277,-2.119632 9.949682,-2.3119619 0.492773,2.1196349 -3.696011,0.858782 2.421715,10.422998 z m 6.614413,-7.721295 c -0.100227,-1.309149 0.01234,-2.424222 0.336016,-3.344421 0.239343,-0.676973 0.594797,-1.296467 1.059991,-1.8548635 0.465226,-0.5587913 0.988684,-0.986581 1.570064,-1.286628 0.775111,-0.3991973 1.685432,-0.6402827 2.731315,-0.7207494 1.895108,-0.1450686 3.452428,0.3278711 4.680798,1.415458 1.22616,1.0903116 1.91908,2.6815469 2.0797,4.7767979 0.15882,2.076899 -0.28132,3.745711 -1.31803,5.003754 -1.03705,1.260768 -2.50118,1.962136 -4.387094,2.106501 -1.909623,0.146542 -3.475761,-0.319741 -4.691786,-1.401955 -1.215928,-1.079443 -1.903941,-2.643801 -2.060974,-4.693894 z m 2.664933,-0.291565 c 0.111558,1.45569 0.533704,2.532263 1.264042,3.233944 0.729944,0.698924 1.61341,1.00987 2.647643,0.930805 1.037056,-0.07939 1.856996,-0.518162 2.466566,-1.313443 0.60607,-0.798054 0.85245,-1.940962 0.73806,-3.432282 -0.11296,-1.473651 -0.52026,-2.548489 -1.22373,-3.222296 -0.70136,-0.6766589 -1.587,-0.9724394 -2.659663,-0.890234 -1.069876,0.081937 -1.905367,0.515746 -2.503985,1.297933 -0.59834,0.785352 -0.842215,1.916304 -0.728933,3.395573 z m 14.109481,5.999162 -1.39711,-13.1536047 2.65827,0.3342806 0.79739,9.0149641 3.43477,-8.4829969 3.07478,0.386853 1.10869,9.2048779 3.067,-8.6800649 2.59609,0.3265412 -4.68431,12.3886757 -2.76272,-0.347322 -1.31804,-9.86882 -3.73763,9.233143 z m 18.25936,3.32222 1.47791,-5.213816 -2.50751,-8.4621918 2.93247,0.8315848 1.53935,5.735491 4.2424,-4.096237 2.87815,0.815748 -6.58088,5.904164 -1.47298,5.196527 z m 12.60258,4.410024 6.47496,-11.130006 2.25409,1.311344 -2.86825,4.930369 7.40998,-2.287973 3.02075,1.757069 -6.72128,1.891214 0.46379,9.365491 -2.90676,-1.691065 -0.0218,-7.007275 -2.89335,0.806902 -1.95793,3.365249 z m 14.76389,1.153521 c 0.81463,-1.029616 1.65405,-1.772253 2.516,-2.229011 0.63537,-0.334595 1.31657,-0.548552 2.03738,-0.643461 0.72075,-0.09494 1.39562,-0.05399 2.02644,0.120001 0.84002,0.232617 1.67272,0.673134 2.49548,1.324041 1.49029,1.178523 2.31374,2.582718 2.47827,4.215196 0.16094,1.632872 -0.40944,3.271742 -1.71302,4.920091 -1.29219,1.633952 -2.74826,2.561231 -4.3631,2.78183 -1.61731,0.222734 -3.16868,-0.2556 -4.65219,-1.428884 -1.50192,-1.188112 -2.33633,-2.592958 -2.49555,-4.213081 -0.16093,-1.617703 0.39498,-3.233936 1.67029,-4.846722 z m 2.15595,1.594031 c -0.90572,1.145084 -1.32609,2.222736 -1.26539,3.233311 0.0618,1.008763 0.49983,1.83683 1.31344,2.479998 0.81566,0.645201 1.71575,0.879243 2.70305,0.708698 0.98656,-0.175057 1.94315,-0.847832 2.87112,-2.020732 0.91666,-1.159144 1.34696,-2.225469 1.28688,-3.197594 -0.0561,-0.972842 -0.50612,-1.791385 -1.34976,-2.45845 -0.84181,-0.665732 -1.75005,-0.913855 -2.72037,-0.745182 -0.97205,0.17086 -1.91876,0.836209 -2.83897,1.999951 z m 14.503,3.713672 3.26399,3.439778 c 0.7367,0.776507 1.2393,1.423198 1.50547,1.943479 0.35685,0.698469 0.51566,1.440134 0.47191,2.221558 -0.0398,0.781131 -0.26372,1.555608 -0.66752,2.327534 -0.40411,0.767366 -1.04408,1.568626 -1.91802,2.398113 -0.76988,0.730651 -1.5213,1.262258 -2.25939,1.598636 -0.90149,0.41334 -1.76738,0.602863 -2.59757,0.568638 -0.629,-0.02328 -1.29576,-0.229445 -1.99994,-0.614557 -0.5266,-0.289442 -1.1179,-0.781834 -1.77832,-1.477873 l -3.36097,-3.541749 z m 0.21675,3.389619 -6.18373,5.867518 1.3307,1.402346 c 0.49733,0.524181 0.88667,0.873603 1.16619,1.05046 0.36714,0.234364 0.73705,0.362867 1.10907,0.389674 0.37449,0.02898 0.82947,-0.0928 1.36669,-0.362866 0.53935,-0.267552 1.17087,-0.747216 1.89269,-1.432332 0.72182,-0.685113 1.21455,-1.272184 1.47967,-1.767379 0.2672,-0.493805 0.39811,-0.956594 0.39882,-1.391394 -9.9e-4,-0.432413 -0.12772,-0.861987 -0.38614,-1.286251 -0.18883,-0.316633 -0.64732,-0.860899 -1.37343,-1.626167 z m 4.03132,11.005397 c 1.07268,-0.757144 2.08786,-1.231888 3.04405,-1.425698 0.70383,-0.141552 1.41792,-0.153891 2.13585,-0.04056 0.71832,0.112962 1.35398,0.343102 1.90959,0.688634 0.74018,0.460979 1.41364,1.118929 2.01869,1.975969 1.09594,1.552716 1.4881,3.132619 1.18384,4.744686 -0.30779,1.61163 -1.31906,3.02216 -3.0356,4.233875 -1.702,1.201183 -3.36095,1.678415 -4.97233,1.433105 -1.61414,-0.244264 -2.96675,-1.142255 -4.05741,-2.687548 -1.10447,-1.564746 -1.50652,-3.148149 -1.20084,-4.747118 0.30355,-1.597249 1.29436,-2.989728 2.97416,-4.175358 z m 1.61631,2.13869 c -1.19273,0.841827 -1.90079,1.756379 -2.12916,2.742945 -0.22591,0.984786 -0.0403,1.903235 0.55769,2.750373 0.60006,0.849954 1.39705,1.328986 2.39211,1.444743 0.99611,0.11149 2.10371,-0.263013 3.32574,-1.125319 1.20718,-0.852041 1.92158,-1.752837 2.13939,-2.702327 0.22164,-0.948832 0.0218,-1.861265 -0.5987,-2.7402 -0.61873,-0.876739 -1.4193,-1.371632 -2.39775,-1.484592 -0.98127,-0.111175 -2.07721,0.258736 -3.28932,1.114377 z m 1.33211,13.630088 11.77026,-5.221556 1.05752,2.383669 -5.21342,2.313007 7.34436,2.489908 1.41716,3.194407 -6.55401,-2.407669 -5.11429,7.859325 -1.3635,-3.073706 4.08957,-5.690234 -2.81675,-1.042381 -3.5594,1.578899 z m 8.40783,23.019596 -0.76738,-2.701686 2.5157,-1.870759 -1.41125,-4.967779 -3.11251,-0.227984 -0.75355,-2.652638 13.75254,1.289758 0.75292,2.649834 z m 3.61062,-5.98047 4.09551,-3.023575 -5.05953,-0.369561 z m -3.32503,7.358111 12.77833,-1.584874 0.31069,2.504372 -7.9113,6.321463 8.56352,-1.06213 0.29685,2.391404 -12.77871,1.584832 -0.32054,-2.584836 7.75772,-6.220462 -8.40009,1.04198 z"
       style="fill:#a7a5a6;fill-opacity:1;fill-rule:evenodd;stroke:none;stroke-width:0.22565"
       id="path38" />
    <path
       d="m 74.788029,193.95962 0.701743,-2.05675 5.286449,1.80333 -1.656831,4.85555 c -0.683713,0.32646 -1.578508,0.51145 -2.686491,0.56051 -1.103744,0.0469 -2.157027,-0.10055 -3.160177,-0.44263 -1.272119,-0.43421 -2.289078,-1.0784 -3.052542,-1.93606 -0.760641,-0.85738 -1.209616,-1.86761 -1.346243,-3.02465 -0.136612,-1.15634 -0.0045,-2.3229 0.394593,-3.49267 0.432771,-1.2693 1.083677,-2.30565 1.950898,-3.11395 0.869066,-0.80409 1.904324,-1.29858 3.106585,-1.47653 0.920174,-0.13797 1.957933,-0.01 3.119194,0.38724 1.509662,0.51498 2.5831,1.23577 3.21634,2.16017 0.629651,0.92658 0.877843,1.9883 0.738781,3.19301 l -2.604606,-0.37592 c 0.03423,-0.65544 -0.12709,-1.23928 -0.48145,-1.74895 -0.352303,-0.50582 -0.882832,-0.87964 -1.590895,-1.12143 -1.070886,-0.36527 -2.039488,-0.31622 -2.90429,0.1511 -0.864775,0.46699 -1.526926,1.37022 -1.984067,2.71015 -0.494126,1.44754 -0.543884,2.64163 -0.150008,3.58234 0.396395,0.94204 1.111184,1.59052 2.151046,1.94518 0.512541,0.17512 1.063126,0.24921 1.647306,0.22383 0.587008,-0.0244 1.113288,-0.12 1.582391,-0.28241 l 0.526624,-1.54388 z m 6.187644,6.8022 2.879201,-12.42186 2.536478,0.58771 -2.388613,10.30505 6.281247,1.45602 -0.490666,2.11679 z m 10.608615,2.03385 1.660449,-12.75121 2.582017,0.336 -1.660439,12.75122 z m 6.803948,0.76879 -2.723494,-12.92596 2.675125,0.0625 1.706693,8.87484 2.55164,-8.77602 3.09417,0.072 2.03559,9.0319 2.16549,-8.9345 2.61239,0.0607 -3.39595,12.78333 -2.77975,-0.0646 -2.31124,-9.6704 -2.77615,9.55213 z m 15.978514,-0.29826 -1.65484,-12.75193 2.58245,-0.33536 1.65471,12.75192 z m 12.02969,-6.86219 2.62399,0.18285 c -0.0551,1.46622 -0.44403,2.63529 -1.16267,3.50892 -0.71941,0.87111 -1.74902,1.46444 -3.09315,1.77683 -1.6646,0.38757 -3.16443,0.13694 -4.50144,-0.75042 -1.33459,-0.88807 -2.23259,-2.31726 -2.69181,-4.29111 -0.48464,-2.08433 -0.32229,-3.83085 0.48459,-5.23569 0.8073,-1.40446 2.09002,-2.31159 3.84533,-2.71999 1.53333,-0.35653 2.88385,-0.19131 4.05144,0.4931 0.69606,0.40347 1.3007,1.07407 1.8203,2.01337 l -2.36314,1.17642 c -0.29937,-0.61238 -0.72748,-1.05392 -1.28447,-1.32076 -0.5598,-0.26616 -1.17469,-0.31946 -1.84502,-0.16344 -0.9301,0.21601 -1.6078,0.72394 -2.02959,1.52591 -0.42572,0.79981 -0.46385,1.9456 -0.11647,3.43832 0.3674,1.57989 0.91596,2.64162 1.64019,3.17994 0.72825,0.54073 1.54679,0.70346 2.45924,0.4913 0.67347,-0.15672 1.2043,-0.50435 1.58834,-1.04547 0.38441,-0.54114 0.57822,-1.29299 0.57432,-2.26008 z m 5.68005,3.46828 -4.12553,-12.179 9.01528,-3.05394 0.69714,2.05822 -6.54873,2.21839 0.91595,2.70452 6.08954,-2.06279 0.69747,2.05855 -6.08955,2.06276 1.11791,3.29994 6.78662,-2.29891 0.69712,2.05783 z"
       style="fill:#a7a5a6;fill-opacity:1;fill-rule:evenodd;stroke:none;stroke-width:0.22565"
       id="path40" />
  </g>
</svg>
